<svg width="17" height="17" viewBox="0 0 17 17" fill="none" xmlns="http://www.w3.org/2000/svg">
<path d="M1.19283 14.9473C0.785332 15.3548 0.785332 16.0154 1.19283 16.4229C1.60033 16.8304 2.26104 16.8304 2.66854 16.4229L1.19283 14.9473ZM9.62503 9.46634C10.0325 9.05883 10.0325 8.39823 9.62503 7.99072C9.21752 7.58321 8.55693 7.58321 8.14941 7.99072L9.62503 9.46634ZM8.14941 7.99072C7.7419 8.39823 7.7419 9.05883 8.14941 9.46634C8.55693 9.87386 9.21752 9.87386 9.62503 9.46634L8.14941 7.99072ZM16.5816 2.50985C16.9891 2.10235 16.9891 1.44164 16.5816 1.03414C16.1741 0.626641 15.5135 0.626641 15.106 1.03414L16.5816 2.50985ZM9.62503 7.99072C9.21752 7.58321 8.55693 7.58321 8.14941 7.99072C7.7419 8.39823 7.7419 9.05883 8.14941 9.46634L9.62503 7.99072ZM15.106 16.4229C15.5135 16.8304 16.1741 16.8304 16.5816 16.4229C16.9891 16.0154 16.9891 15.3548 16.5816 14.9473L15.106 16.4229ZM8.14941 9.46634C8.55693 9.87386 9.21752 9.87386 9.62503 9.46634C10.0325 9.05883 10.0325 8.39823 9.62503 7.99072L8.14941 9.46634ZM2.66854 1.03414C2.26104 0.626641 1.60033 0.626641 1.19283 1.03414C0.785332 1.44164 0.785332 2.10235 1.19283 2.50985L2.66854 1.03414ZM2.66854 16.4229L9.62503 9.46634L8.14941 7.99072L1.19283 14.9473L2.66854 16.4229ZM9.62503 9.46634L16.5816 2.50985L15.106 1.03414L8.14941 7.99072L9.62503 9.46634ZM8.14941 9.46634L15.106 16.4229L16.5816 14.9473L9.62503 7.99072L8.14941 9.46634ZM9.62503 7.99072L2.66854 1.03414L1.19283 2.50985L8.14941 9.46634L9.62503 7.99072Z" fill="#232323"/>
</svg>
