<svg width="16" height="17" viewBox="0 0 16 17" fill="none" xmlns="http://www.w3.org/2000/svg">
<path d="M0.305625 14.7187C-0.101875 15.1263 -0.101875 15.7869 0.305625 16.1944C0.713125 16.6019 1.37383 16.6019 1.78133 16.1944L0.305625 14.7187ZM8.73783 9.23783C9.14534 8.83031 9.14534 8.16972 8.73783 7.7622C8.33031 7.35469 7.66972 7.35469 7.2622 7.7622L8.73783 9.23783ZM7.2622 7.7622C6.85469 8.16972 6.85469 8.83031 7.2622 9.23783C7.66972 9.64534 8.33031 9.64534 8.73783 9.23783L7.2622 7.7622ZM15.6944 2.28133C16.1019 1.87383 16.1019 1.21313 15.6944 0.805625C15.2869 0.398125 14.6263 0.398125 14.2187 0.805625L15.6944 2.28133ZM8.73783 7.7622C8.33031 7.35469 7.66972 7.35469 7.2622 7.7622C6.85469 8.16972 6.85469 8.83031 7.2622 9.23783L8.73783 7.7622ZM14.2187 16.1944C14.6263 16.6019 15.2869 16.6019 15.6944 16.1944C16.1019 15.7869 16.1019 15.1263 15.6944 14.7187L14.2187 16.1944ZM7.2622 9.23783C7.66972 9.64534 8.33031 9.64534 8.73783 9.23783C9.14534 8.83031 9.14534 8.16972 8.73783 7.7622L7.2622 9.23783ZM1.78133 0.805625C1.37383 0.398125 0.713125 0.398125 0.305625 0.805625C-0.101875 1.21313 -0.101875 1.87383 0.305625 2.28133L1.78133 0.805625ZM1.78133 16.1944L8.73783 9.23783L7.2622 7.7622L0.305625 14.7187L1.78133 16.1944ZM8.73783 9.23783L15.6944 2.28133L14.2187 0.805625L7.2622 7.7622L8.73783 9.23783ZM7.2622 9.23783L14.2187 16.1944L15.6944 14.7187L8.73783 7.7622L7.2622 9.23783ZM8.73783 7.7622L1.78133 0.805625L0.305625 2.28133L7.2622 9.23783L8.73783 7.7622Z" fill="white"/>
</svg>
