<svg width="22" height="4" viewBox="0 0 22 4" fill="none" xmlns="http://www.w3.org/2000/svg">
<path d="M11 0C11.4153 0 11.8214 0.117298 12.1667 0.337061C12.512 0.556824 12.7812 0.869181 12.9401 1.23463C13.0991 1.60008 13.1407 2.00222 13.0596 2.39018C12.9786 2.77814 12.7786 3.13451 12.4849 3.41421C12.1912 3.69392 11.817 3.8844 11.4097 3.96157C11.0023 4.03874 10.5801 3.99913 10.1964 3.84776C9.81264 3.69638 9.48466 3.44004 9.25391 3.11114C9.02316 2.78224 8.9 2.39556 8.9 2C8.9 1.46957 9.12125 0.960859 9.51507 0.585786C9.9089 0.210713 10.443 0 11 0ZM0.5 2C0.5 2.39556 0.623163 2.78224 0.853914 3.11114C1.08466 3.44004 1.41264 3.69638 1.79636 3.84776C2.18009 3.99913 2.60233 4.03874 3.00969 3.96157C3.41705 3.8844 3.79123 3.69392 4.08492 3.41421C4.37861 3.13451 4.57862 2.77814 4.65965 2.39018C4.74068 2.00222 4.69909 1.60008 4.54015 1.23463C4.3812 0.869181 4.11204 0.556824 3.7667 0.337061C3.42135 0.117298 3.01534 0 2.6 0C2.04305 0 1.5089 0.210713 1.11508 0.585786C0.721249 0.960859 0.5 1.46957 0.5 2ZM17.3 2C17.3 2.39556 17.4232 2.78224 17.6539 3.11114C17.8847 3.44004 18.2126 3.69638 18.5964 3.84776C18.9801 3.99913 19.4023 4.03874 19.8097 3.96157C20.217 3.8844 20.5912 3.69392 20.8849 3.41421C21.1786 3.13451 21.3786 2.77814 21.4596 2.39018C21.5407 2.00222 21.4991 1.60008 21.3401 1.23463C21.1812 0.869181 20.912 0.556824 20.5667 0.337061C20.2214 0.117298 19.8153 0 19.4 0C18.843 0 18.3089 0.210713 17.9151 0.585786C17.5212 0.960859 17.3 1.46957 17.3 2Z" fill="white"/>
</svg>
