<svg width="27" height="26" viewBox="0 0 27 26" fill="none" xmlns="http://www.w3.org/2000/svg">
<path d="M3.375 17.9997C3.375 17.3093 2.81535 16.7497 2.125 16.7497C1.43465 16.7497 0.875 17.3093 0.875 17.9997H3.375ZM26.125 17.9997C26.125 17.3093 25.5653 16.7497 24.875 16.7497C24.1847 16.7497 23.625 17.3093 23.625 17.9997H26.125ZM12.5143 18.8975C12.0898 19.4418 12.1868 20.2273 12.7312 20.652C13.2755 21.0765 14.061 20.9795 14.4857 20.4352L12.5143 18.8975ZM20.9857 12.1018C21.4102 11.5575 21.3132 10.772 20.7688 10.3473C20.2245 9.92284 19.439 10.0198 19.0143 10.5642L20.9857 12.1018ZM12.5143 20.4352C12.939 20.9795 13.7245 21.0765 14.2688 20.652C14.8132 20.2273 14.9102 19.4418 14.4857 18.8975L12.5143 20.4352ZM7.98563 10.5642C7.56103 10.0198 6.77555 9.92284 6.23122 10.3473C5.68687 10.772 5.58978 11.5575 6.01437 12.1018L7.98563 10.5642ZM12.25 19.6663C12.25 20.3567 12.8097 20.9163 13.5 20.9163C14.1903 20.9163 14.75 20.3567 14.75 19.6663H12.25ZM14.75 1.33301C14.75 0.642658 14.1903 0.0830078 13.5 0.0830078C12.8097 0.0830078 12.25 0.642658 12.25 1.33301H14.75ZM0.875 17.9997V19.6663H3.375V17.9997H0.875ZM0.875 19.6663C0.875 23.0882 3.58762 25.9163 7 25.9163V23.4163C5.02762 23.4163 3.375 21.7675 3.375 19.6663H0.875ZM7 25.9163H20V23.4163H7V25.9163ZM20 25.9163C23.4123 25.9163 26.125 23.0882 26.125 19.6663H23.625C23.625 21.7675 21.9723 23.4163 20 23.4163V25.9163ZM26.125 19.6663V17.9997H23.625V19.6663H26.125ZM14.4857 20.4352L20.9857 12.1018L19.0143 10.5642L12.5143 18.8975L14.4857 20.4352ZM14.4857 18.8975L7.98563 10.5642L6.01437 12.1018L12.5143 20.4352L14.4857 18.8975ZM14.75 19.6663V1.33301H12.25V19.6663H14.75Z" fill="#232323"/>
</svg>
