<svg width="20" height="20" viewBox="0 0 20 20" fill="none" xmlns="http://www.w3.org/2000/svg">
<path d="M2.00005 8.7998C1.33731 8.7998 0.800049 9.33708 0.800049 9.9998C0.800049 10.6625 1.33731 11.1998 2.00005 11.1998V8.7998ZM10 11.1998C10.6628 11.1998 11.2 10.6625 11.2 9.9998C11.2 9.33708 10.6628 8.7998 10 8.7998V11.1998ZM10 8.7998C9.33733 8.7998 8.80005 9.33708 8.80005 9.9998C8.80005 10.6625 9.33733 11.1998 10 11.1998V8.7998ZM18 11.1998C18.6628 11.1998 19.2 10.6625 19.2 9.9998C19.2 9.33708 18.6628 8.7998 18 8.7998V11.1998ZM11.2 9.9998C11.2 9.33708 10.6628 8.7998 10 8.7998C9.33733 8.7998 8.80005 9.33708 8.80005 9.9998H11.2ZM8.80005 17.9998C8.80005 18.6625 9.33733 19.1998 10 19.1998C10.6628 19.1998 11.2 18.6625 11.2 17.9998H8.80005ZM8.80005 9.9998C8.80005 10.6625 9.33733 11.1998 10 11.1998C10.6628 11.1998 11.2 10.6625 11.2 9.9998H8.80005ZM11.2 1.9998C11.2 1.33707 10.6628 0.799805 10 0.799805C9.33733 0.799805 8.80005 1.33707 8.80005 1.9998H11.2ZM2.00005 11.1998H10V8.7998H2.00005V11.1998ZM10 11.1998H18V8.7998H10V11.1998ZM10 9.9998H8.80005V10.0014C8.80005 10.0016 8.80005 10.0033 8.80005 10.0033C8.80005 10.0032 8.80005 10.0035 8.80005 10.0033C8.80005 10.0033 8.80005 10.0051 8.80005 10.0052C8.80005 10.0051 8.80005 10.0054 8.80005 10.0052C8.80005 10.0054 8.80005 10.0067 8.80005 10.0068C8.80005 10.007 8.80005 10.0084 8.80005 10.0086C8.80005 10.0088 8.80005 10.01 8.80005 10.0102C8.80005 10.0104 8.80005 10.0118 8.80005 10.0121C8.80005 10.0123 8.80005 10.0137 8.80005 10.014C8.80005 10.0142 8.80005 10.016 8.80005 10.0161C8.80005 10.0158 8.80005 10.0164 8.80005 10.0161C8.80005 10.0164 8.80005 10.0174 8.80005 10.0177C8.80005 10.0174 8.80005 10.018 8.80005 10.0177C8.80005 10.018 8.80005 10.0192 8.80005 10.0193C8.80005 10.019 8.80005 10.0196 8.80005 10.0193C8.80005 10.0196 8.80005 10.0208 8.80005 10.0211C8.80005 10.0208 8.80005 10.0214 8.80005 10.0211C8.80005 10.0214 8.80005 10.0227 8.80005 10.023C8.80005 10.0227 8.80005 10.0233 8.80005 10.023C8.80005 10.0233 8.80005 10.0246 8.80005 10.0249C8.80005 10.0244 8.80005 10.0252 8.80005 10.0249C8.80005 10.0252 8.80005 10.0267 8.80005 10.027C8.80005 10.0267 8.80005 10.0273 8.80005 10.027C8.80005 10.0273 8.80005 10.0288 8.80005 10.0292C8.80005 10.0288 8.80005 10.0296 8.80005 10.0292C8.80005 10.0296 8.80005 10.0312 8.80005 10.0315C8.80005 10.0312 8.80005 10.0318 8.80005 10.0315C8.80005 10.032 8.80005 10.0334 8.80005 10.0339C8.80005 10.0334 8.80005 10.0344 8.80005 10.0339C8.80005 10.0342 8.80005 10.036 8.80005 10.0364C8.80005 10.036 8.80005 10.0368 8.80005 10.0364C8.80005 10.0369 8.80005 10.0385 8.80005 10.039C8.80005 10.0385 8.80005 10.0395 8.80005 10.039C8.80005 10.0395 8.80005 10.0414 8.80005 10.0419C8.80005 10.0414 8.80005 10.0424 8.80005 10.0419C8.80005 10.0424 8.80005 10.0443 8.80005 10.0448C8.80005 10.0443 8.80005 10.0452 8.80005 10.0448C8.80005 10.0452 8.80005 10.0472 8.80005 10.0478C8.80005 10.0473 8.80005 10.0483 8.80005 10.0478C8.80005 10.0484 8.80005 10.0504 8.80005 10.0508C8.80005 10.0515 8.80005 10.052 8.80005 10.0526C8.80005 10.0531 8.80005 10.0536 8.80005 10.0542C8.80005 10.0548 8.80005 10.0553 8.80005 10.056C8.80005 10.0564 8.80005 10.0571 8.80005 10.0576C8.80005 10.0582 8.80005 10.0588 8.80005 10.0595C8.80005 10.06 8.80005 10.0606 8.80005 10.0612C8.80005 10.0619 8.80005 10.0624 8.80005 10.063C8.80005 10.0636 8.80005 10.0643 8.80005 10.0649C8.80005 10.0656 8.80005 10.0662 8.80005 10.0668C8.80005 10.0675 8.80005 10.0681 8.80005 10.0688C8.80005 10.0694 8.80005 10.0702 8.80005 10.0708C8.80005 10.0715 8.80005 10.0721 8.80005 10.0728C8.80005 10.0736 8.80005 10.0742 8.80005 10.0748C8.80005 10.0756 8.80005 10.0763 8.80005 10.0769C8.80005 10.0777 8.80005 10.0784 8.80005 10.0792C8.80005 10.0798 8.80005 10.0806 8.80005 10.0812C8.80005 10.082 8.80005 10.0828 8.80005 10.0835C8.80005 10.0843 8.80005 10.0851 8.80005 10.0859C8.80005 10.0865 8.80005 10.0873 8.80005 10.0881C8.80005 10.0889 8.80005 10.0897 8.80005 10.0905C8.80005 10.0912 8.80005 10.092 8.80005 10.0928C8.80005 10.0936 8.80005 10.0945 8.80005 10.0953C8.80005 10.0961 8.80005 10.0969 8.80005 10.0977C8.80005 10.0985 8.80005 10.0993 8.80005 10.1003C8.80005 10.1011 8.80005 10.1019 8.80005 10.1028C8.80005 10.1036 8.80005 10.1046 8.80005 10.1054C8.80005 10.1062 8.80005 10.1072 8.80005 10.108C8.80005 10.1089 8.80005 10.1099 8.80005 10.1107C8.80005 10.1116 8.80005 10.1126 8.80005 10.1134C8.80005 10.1144 8.80005 10.1153 8.80005 10.1163C8.80005 10.1171 8.80005 10.118 8.80005 10.119C8.80005 10.12 8.80005 10.1209 8.80005 10.1219C8.80005 10.1228 8.80005 10.1238 8.80005 10.1248C8.80005 10.1257 8.80005 10.1268 8.80005 10.1278C8.80005 10.1288 8.80005 10.1297 8.80005 10.1307C8.80005 10.1318 8.80005 10.1328 8.80005 10.1337C8.80005 10.1348 8.80005 10.1358 8.80005 10.1369C8.80005 10.1379 8.80005 10.139 8.80005 10.14C8.80005 10.1411 8.80005 10.1422 8.80005 10.1432C8.80005 10.1443 8.80005 10.1454 8.80005 10.1465C8.80005 10.1475 8.80005 10.1486 8.80005 10.1497C8.80005 10.1508 8.80005 10.152 8.80005 10.1531C8.80005 10.1542 8.80005 10.1553 8.80005 10.1564C8.80005 10.1576 8.80005 10.1587 8.80005 10.1598C8.80005 10.1611 8.80005 10.1622 8.80005 10.1633C8.80005 10.1646 8.80005 10.1657 8.80005 10.1668C8.80005 10.1681 8.80005 10.1692 8.80005 10.1705C8.80005 10.1716 8.80005 10.1729 8.80005 10.174C8.80005 10.1753 8.80005 10.1766 8.80005 10.1777C8.80005 10.179 8.80005 10.1803 8.80005 10.1816C8.80005 10.1828 8.80005 10.184 8.80005 10.1852C8.80005 10.1865 8.80005 10.1878 8.80005 10.1891C8.80005 10.1904 8.80005 10.1918 8.80005 10.1931C8.80005 10.1944 8.80005 10.1956 8.80005 10.1969C8.80005 10.1984 8.80005 10.1996 8.80005 10.2009C8.80005 10.2024 8.80005 10.2036 8.80005 10.2051C8.80005 10.2064 8.80005 10.2078 8.80005 10.2091C8.80005 10.2105 8.80005 10.212 8.80005 10.2132C8.80005 10.2147 8.80005 10.2161 8.80005 10.2176C8.80005 10.2188 8.80005 10.2203 8.80005 10.2217C8.80005 10.2232 8.80005 10.2246 8.80005 10.226C8.80005 10.2275 8.80005 10.2289 8.80005 10.2305C8.80005 10.232 8.80005 10.2334 8.80005 10.2348C8.80005 10.2364 8.80005 10.2379 8.80005 10.2393C8.80005 10.2409 8.80005 10.2424 8.80005 10.244C8.80005 10.2454 8.80005 10.247 8.80005 10.2486C8.80005 10.25 8.80005 10.2516 8.80005 10.2532C8.80005 10.2548 8.80005 10.2563 8.80005 10.2579C8.80005 10.2595 8.80005 10.2611 8.80005 10.2627C8.80005 10.2643 8.80005 10.2659 8.80005 10.2675C8.80005 10.2692 8.80005 10.2708 8.80005 10.2724C8.80005 10.274 8.80005 10.2758 8.80005 10.2774C8.80005 10.279 8.80005 10.2808 8.80005 10.2824C8.80005 10.2841 8.80005 10.2857 8.80005 10.2875C8.80005 10.2892 8.80005 10.2908 8.80005 10.2926C8.80005 10.2944 8.80005 10.2961 8.80005 10.2979C8.80005 10.2996 8.80005 10.3014 8.80005 10.3032C8.80005 10.3049 8.80005 10.3067 8.80005 10.3084C8.80005 10.3102 8.80005 10.312 8.80005 10.3137C8.80005 10.3156 8.80005 10.3174 8.80005 10.3193C8.80005 10.3211 8.80005 10.3228 8.80005 10.3248C8.80005 10.3265 8.80005 10.3284 8.80005 10.3304C8.80005 10.3321 8.80005 10.334 8.80005 10.336C8.80005 10.3379 8.80005 10.3398 8.80005 10.3417C8.80005 10.3436 8.80005 10.3456 8.80005 10.3475C8.80005 10.3494 8.80005 10.3513 8.80005 10.3532C8.80005 10.3552 8.80005 10.3571 8.80005 10.3592C8.80005 10.3611 8.80005 10.3632 8.80005 10.3651C8.80005 10.3672 8.80005 10.3691 8.80005 10.3712C8.80005 10.3731 8.80005 10.3752 8.80005 10.3772C8.80005 10.3792 8.80005 10.3812 8.80005 10.3833C8.80005 10.3854 8.80005 10.3875 8.80005 10.3896C8.80005 10.3916 8.80005 10.3937 8.80005 10.3958C8.80005 10.3979 8.80005 10.4001 8.80005 10.4022C8.80005 10.4043 8.80005 10.4065 8.80005 10.4086C8.80005 10.4108 8.80005 10.4129 8.80005 10.4152C8.80005 10.4172 8.80005 10.4195 8.80005 10.4217C8.80005 10.4238 8.80005 10.426 8.80005 10.4283C8.80005 10.4305 8.80005 10.4328 8.80005 10.435C8.80005 10.4372 8.80005 10.4395 8.80005 10.4417C8.80005 10.444 8.80005 10.4464 8.80005 10.4486C8.80005 10.4508 8.80005 10.4532 8.80005 10.4555C8.80005 10.4579 8.80005 10.4601 8.80005 10.4625C8.80005 10.4648 8.80005 10.4672 8.80005 10.4696C8.80005 10.472 8.80005 10.4742 8.80005 10.4766C8.80005 10.479 8.80005 10.4814 8.80005 10.4838C8.80005 10.4862 8.80005 10.4886 8.80005 10.4912C8.80005 10.4936 8.80005 10.496 8.80005 10.4984C8.80005 10.5009 8.80005 10.5033 8.80005 10.5059C8.80005 10.5083 8.80005 10.5108 8.80005 10.5132C8.80005 10.5158 8.80005 10.5184 8.80005 10.5209C8.80005 10.5233 8.80005 10.5259 8.80005 10.5284C8.80005 10.531 8.80005 10.5336 8.80005 10.5361C8.80005 10.5387 8.80005 10.5414 8.80005 10.544C8.80005 10.5465 8.80005 10.5492 8.80005 10.5518C8.80005 10.5544 8.80005 10.5571 8.80005 10.5598C8.80005 10.5624 8.80005 10.5651 8.80005 10.5678C8.80005 10.5704 8.80005 10.5731 8.80005 10.5758C8.80005 10.5785 8.80005 10.5812 8.80005 10.584C8.80005 10.5867 8.80005 10.5894 8.80005 10.5921C8.80005 10.595 8.80005 10.5977 8.80005 10.6004C8.80005 10.6033 8.80005 10.606 8.80005 10.6089C8.80005 10.6116 8.80005 10.6145 8.80005 10.6172C8.80005 10.6201 8.80005 10.623 8.80005 10.6259C8.80005 10.6288 8.80005 10.6316 8.80005 10.6345C8.80005 10.6374 8.80005 10.6403 8.80005 10.6432C8.80005 10.646 8.80005 10.6489 8.80005 10.652C8.80005 10.6548 8.80005 10.6579 8.80005 10.6608C8.80005 10.6638 8.80005 10.6667 8.80005 10.6697C8.80005 10.6728 8.80005 10.6756 8.80005 10.6787C8.80005 10.6817 8.80005 10.6848 8.80005 10.6878C8.80005 10.6908 8.80005 10.6939 8.80005 10.6971C8.80005 10.7001 8.80005 10.7032 8.80005 10.7062C8.80005 10.7094 8.80005 10.7124 8.80005 10.7156C8.80005 10.7187 8.80005 10.7219 8.80005 10.7251C8.80005 10.7281 8.80005 10.7313 8.80005 10.7345C8.80005 10.7377 8.80005 10.7409 8.80005 10.7441C8.80005 10.7473 8.80005 10.7505 8.80005 10.7537C8.80005 10.7569 8.80005 10.7603 8.80005 10.7635C8.80005 10.7668 8.80005 10.77 8.80005 10.7734C8.80005 10.7766 8.80005 10.78 8.80005 10.7833C8.80005 10.7865 8.80005 10.7899 8.80005 10.7932C8.80005 10.7966 8.80005 10.8 8.80005 10.8033C8.80005 10.8067 8.80005 10.81 8.80005 10.8136C8.80005 10.8169 8.80005 10.8203 8.80005 10.8238C8.80005 10.8272 8.80005 10.8307 8.80005 10.834C8.80005 10.8376 8.80005 10.8411 8.80005 10.8446C8.80005 10.848 8.80005 10.8515 8.80005 10.855C8.80005 10.8585 8.80005 10.862 8.80005 10.8657C8.80005 10.8692 8.80005 10.8728 8.80005 10.8763C8.80005 10.88 8.80005 10.8835 8.80005 10.8872C8.80005 10.8907 8.80005 10.8944 8.80005 10.898C8.80005 10.9016 8.80005 10.9052 8.80005 10.9089C8.80005 10.9126 8.80005 10.9163 8.80005 10.92C8.80005 10.9236 8.80005 10.9273 8.80005 10.9312C8.80005 10.9348 8.80005 10.9385 8.80005 10.9424C8.80005 10.946 8.80005 10.9499 8.80005 10.9537C8.80005 10.9574 8.80005 10.9612 8.80005 10.9651C8.80005 10.9689 8.80005 10.9728 8.80005 10.9766C8.80005 10.9804 8.80005 10.9843 8.80005 10.9881C8.80005 10.992 8.80005 10.996 8.80005 10.9998C8.80005 11.0036 8.80005 11.0076 8.80005 11.0116C8.80005 11.0155 8.80005 11.0195 8.80005 11.0235C8.80005 11.0273 8.80005 11.0313 8.80005 11.0353C8.80005 11.0393 8.80005 11.0433 8.80005 11.0475C8.80005 11.0515 8.80005 11.0555 8.80005 11.0595C8.80005 11.0636 8.80005 11.0676 8.80005 11.0718C8.80005 11.0758 8.80005 11.08 8.80005 11.0841C8.80005 11.0883 8.80005 11.0923 8.80005 11.0964C8.80005 11.1006 8.80005 11.1048 8.80005 11.1091C8.80005 11.1132 8.80005 11.1174 8.80005 11.1216C8.80005 11.1259 8.80005 11.13 8.80005 11.1344C8.80005 11.1385 8.80005 11.1428 8.80005 11.1472C8.80005 11.1515 8.80005 11.1556 8.80005 11.16C8.80005 11.1643 8.80005 11.1686 8.80005 11.1729C8.80005 11.1774 8.80005 11.1817 8.80005 11.186C8.80005 11.1905 8.80005 11.1948 8.80005 11.1993C8.80005 11.2036 8.80005 11.2081 8.80005 11.2126C8.80005 11.2169 8.80005 11.2214 8.80005 11.2259C8.80005 11.2304 8.80005 11.2348 8.80005 11.2393C8.80005 11.244 8.80005 11.2484 8.80005 11.2529C8.80005 11.2576 8.80005 11.262 8.80005 11.2667C8.80005 11.2712 8.80005 11.2758 8.80005 11.2804C8.80005 11.2851 8.80005 11.2896 8.80005 11.2942C8.80005 11.2988 8.80005 11.3036 8.80005 11.3083C8.80005 11.3129 8.80005 11.3176 8.80005 11.3224C8.80005 11.327 8.80005 11.3318 8.80005 11.3364C8.80005 11.3412 8.80005 11.346 8.80005 11.3507C8.80005 11.3555 8.80005 11.3603 8.80005 11.3651C8.80005 11.3699 8.80005 11.3747 8.80005 11.3796C8.80005 11.3844 8.80005 11.3892 8.80005 11.3942C8.80005 11.399 8.80005 11.404 8.80005 11.4089C8.80005 11.4137 8.80005 11.4187 8.80005 11.4236C8.80005 11.4286 8.80005 11.4336 8.80005 11.4385C8.80005 11.4435 8.80005 11.4484 8.80005 11.4536C8.80005 11.4585 8.80005 11.4635 8.80005 11.4686C8.80005 11.4736 8.80005 11.4787 8.80005 11.4838C8.80005 11.4889 8.80005 11.494 8.80005 11.4992C8.80005 11.5041 8.80005 11.5094 8.80005 11.5145C8.80005 11.5196 8.80005 11.5248 8.80005 11.53C8.80005 11.5352 8.80005 11.5404 8.80005 11.5456C8.80005 11.5508 8.80005 11.5561 8.80005 11.5614C8.80005 11.5665 8.80005 11.5718 8.80005 11.5771C8.80005 11.5825 8.80005 11.5878 8.80005 11.5931C8.80005 11.5984 8.80005 11.6038 8.80005 11.6091C8.80005 11.6145 8.80005 11.6198 8.80005 11.6252C8.80005 11.6307 8.80005 11.6361 8.80005 11.6416C8.80005 11.647 8.80005 11.6524 8.80005 11.6579C8.80005 11.6633 8.80005 11.6689 8.80005 11.6744C8.80005 11.6798 8.80005 11.6854 8.80005 11.691C8.80005 11.6964 8.80005 11.702 8.80005 11.7076C8.80005 11.7132 8.80005 11.7188 8.80005 11.7244C8.80005 11.73 8.80005 11.7356 8.80005 11.7414C8.80005 11.747 8.80005 11.7526 8.80005 11.7584C8.80005 11.7641 8.80005 11.7697 8.80005 11.7755C8.80005 11.7812 8.80005 11.787 8.80005 11.7928C8.80005 11.7985 8.80005 11.8043 8.80005 11.81C8.80005 11.8158 8.80005 11.8217 8.80005 11.8275C8.80005 11.8334 8.80005 11.8392 8.80005 11.8451C8.80005 11.851 8.80005 11.8569 8.80005 11.8628C8.80005 11.8688 8.80005 11.8747 8.80005 11.8806C8.80005 11.8865 8.80005 11.8924 8.80005 11.8985C8.80005 11.9044 8.80005 11.9105 8.80005 11.9166C8.80005 11.9225 8.80005 11.9286 8.80005 11.9347C8.80005 11.9408 8.80005 11.9468 8.80005 11.9529C8.80005 11.959 8.80005 11.9651 8.80005 11.9713C8.80005 11.9774 8.80005 11.9836 8.80005 11.9897C8.80005 11.996 8.80005 12.0022 8.80005 12.0084C8.80005 12.0145 8.80005 12.0208 8.80005 12.0272C8.80005 12.0334 8.80005 12.0396 8.80005 12.0459C8.80005 12.0523 8.80005 12.0585 8.80005 12.0649C8.80005 12.0712 8.80005 12.0776 8.80005 12.084C8.80005 12.0904 8.80005 12.0968 8.80005 12.1032C8.80005 12.1096 8.80005 12.116 8.80005 12.1224C8.80005 12.1289 8.80005 12.1353 8.80005 12.1419C8.80005 12.1483 8.80005 12.1548 8.80005 12.1614C8.80005 12.1678 8.80005 12.1744 8.80005 12.1809C8.80005 12.1876 8.80005 12.1942 8.80005 12.2008C8.80005 12.2073 8.80005 12.214 8.80005 12.2206C8.80005 12.2273 8.80005 12.234 8.80005 12.2406C8.80005 12.2473 8.80005 12.254 8.80005 12.2608C8.80005 12.2675 8.80005 12.2742 8.80005 12.2811C8.80005 12.2878 8.80005 12.2945 8.80005 12.3014C8.80005 12.3083 8.80005 12.315 8.80005 12.3219C8.80005 12.3288 8.80005 12.3356 8.80005 12.3425C8.80005 12.3494 8.80005 12.3563 8.80005 12.3632C8.80005 12.3702 8.80005 12.3771 8.80005 12.3841C8.80005 12.391 8.80005 12.398 8.80005 12.4051C8.80005 12.4121 8.80005 12.4192 8.80005 12.4262C8.80005 12.4332 8.80005 12.4403 8.80005 12.4473C8.80005 12.4545 8.80005 12.4616 8.80005 12.4688C8.80005 12.4758 8.80005 12.483 8.80005 12.4902C8.80005 12.4974 8.80005 12.5046 8.80005 12.5118C8.80005 12.519 8.80005 12.5262 8.80005 12.5336C8.80005 12.5408 8.80005 12.5481 8.80005 12.5553C8.80005 12.5627 8.80005 12.57 8.80005 12.5772C8.80005 12.5846 8.80005 12.592 8.80005 12.5995C8.80005 12.6068 8.80005 12.6142 8.80005 12.6216C8.80005 12.6291 8.80005 12.6364 8.80005 12.644C8.80005 12.6515 8.80005 12.659 8.80005 12.6665C8.80005 12.6739 8.80005 12.6816 8.80005 12.6891C8.80005 12.6966 8.80005 12.7041 8.80005 12.7118C8.80005 12.7193 8.80005 12.727 8.80005 12.7347C8.80005 12.7422 8.80005 12.7499 8.80005 12.7576C8.80005 12.7652 8.80005 12.7729 8.80005 12.7808C8.80005 12.7884 8.80005 12.7961 8.80005 12.804C8.80005 12.8118 8.80005 12.8195 8.80005 12.8273C8.80005 12.8352 8.80005 12.843 8.80005 12.8508C8.80005 12.8587 8.80005 12.8665 8.80005 12.8745C8.80005 12.8824 8.80005 12.8902 8.80005 12.8982C8.80005 12.9062 8.80005 12.914 8.80005 12.922C8.80005 12.93 8.80005 12.938 8.80005 12.946C8.80005 12.9542 8.80005 12.9622 8.80005 12.9702C8.80005 12.9784 8.80005 12.9864 8.80005 12.9945C8.80005 13.0027 8.80005 13.0108 8.80005 13.019C8.80005 13.0272 8.80005 13.0353 8.80005 13.0435C8.80005 13.0516 8.80005 13.06 8.80005 13.0681C8.80005 13.0764 8.80005 13.0848 8.80005 13.0929C8.80005 13.1012 8.80005 13.1096 8.80005 13.1179C8.80005 13.1262 8.80005 13.1347 8.80005 13.143C8.80005 13.1513 8.80005 13.1598 8.80005 13.1683C8.80005 13.1766 8.80005 13.1851 8.80005 13.1936C8.80005 13.202 8.80005 13.2105 8.80005 13.219C8.80005 13.2276 8.80005 13.2361 8.80005 13.2446C8.80005 13.2532 8.80005 13.2619 8.80005 13.2704C8.80005 13.279 8.80005 13.2876 8.80005 13.2963C8.80005 13.3049 8.80005 13.3137 8.80005 13.3224C8.80005 13.331 8.80005 13.3398 8.80005 13.3484C8.80005 13.3572 8.80005 13.366 8.80005 13.3748C8.80005 13.3836 8.80005 13.3924 8.80005 13.4012C8.80005 13.41 8.80005 13.419 8.80005 13.4278C8.80005 13.4368 8.80005 13.4456 8.80005 13.4545C8.80005 13.4635 8.80005 13.4724 8.80005 13.4814C8.80005 13.4904 8.80005 13.4993 8.80005 13.5084C8.80005 13.5174 8.80005 13.5264 8.80005 13.5355C8.80005 13.5446 8.80005 13.5537 8.80005 13.5627C8.80005 13.5718 8.80005 13.5811 8.80005 13.5902C8.80005 13.5993 8.80005 13.6084 8.80005 13.6177C8.80005 13.6268 8.80005 13.6361 8.80005 13.6454C8.80005 13.6547 8.80005 13.664 8.80005 13.6732C8.80005 13.6825 8.80005 13.6918 8.80005 13.7012C8.80005 13.7105 8.80005 13.72 8.80005 13.7292C8.80005 13.7387 8.80005 13.7481 8.80005 13.7576C8.80005 13.767 8.80005 13.7764 8.80005 13.7859C8.80005 13.7955 8.80005 13.8049 8.80005 13.8145C8.80005 13.824 8.80005 13.8336 8.80005 13.8432C8.80005 13.8528 8.80005 13.8624 8.80005 13.872C8.80005 13.8816 8.80005 13.8913 8.80005 13.9009C8.80005 13.9107 8.80005 13.9203 8.80005 13.93C8.80005 13.9398 8.80005 13.9496 8.80005 13.9593C8.80005 13.9691 8.80005 13.979 8.80005 13.9888C8.80005 13.9985 8.80005 14.0084 8.80005 14.0184C8.80005 14.0281 8.80005 14.038 8.80005 14.048C8.80005 14.0579 8.80005 14.0678 8.80005 14.0779C8.80005 14.0878 8.80005 14.0977 8.80005 14.1078C8.80005 14.1179 8.80005 14.1278 8.80005 14.1379C8.80005 14.148 8.80005 14.158 8.80005 14.1683C8.80005 14.1784 8.80005 14.1884 8.80005 14.1987C8.80005 14.2088 8.80005 14.219 8.80005 14.2292C8.80005 14.2395 8.80005 14.2497 8.80005 14.26C8.80005 14.2702 8.80005 14.2804 8.80005 14.2908C8.80005 14.3011 8.80005 14.3115 8.80005 14.3219C8.80005 14.3321 8.80005 14.3425 8.80005 14.3531C8.80005 14.3635 8.80005 14.3739 8.80005 14.3843C8.80005 14.3948 8.80005 14.4052 8.80005 14.4158C8.80005 14.4264 8.80005 14.4369 8.80005 14.4475C8.80005 14.458 8.80005 14.4686 8.80005 14.4792C8.80005 14.4897 8.80005 14.5004 8.80005 14.5112C8.80005 14.5217 8.80005 14.5324 8.80005 14.5432C8.80005 14.5539 8.80005 14.5646 8.80005 14.5753C8.80005 14.5862 8.80005 14.5969 8.80005 14.6078C8.80005 14.6185 8.80005 14.6294 8.80005 14.6403C8.80005 14.6512 8.80005 14.662 8.80005 14.6729C8.80005 14.684 8.80005 14.6948 8.80005 14.7059C8.80005 14.7168 8.80005 14.7278 8.80005 14.7388C8.80005 14.7499 8.80005 14.7609 8.80005 14.772C8.80005 14.783 8.80005 14.794 8.80005 14.8052C8.80005 14.8163 8.80005 14.8275 8.80005 14.8387C8.80005 14.8499 8.80005 14.8611 8.80005 14.8723C8.80005 14.8835 8.80005 14.8947 8.80005 14.906C8.80005 14.9172 8.80005 14.9286 8.80005 14.94C8.80005 14.9513 8.80005 14.9627 8.80005 14.974C8.80005 14.9854 8.80005 14.9968 8.80005 15.0083C8.80005 15.0196 8.80005 15.0312 8.80005 15.0427C8.80005 15.054 8.80005 15.0656 8.80005 15.0772C8.80005 15.0888 8.80005 15.1003 8.80005 15.1118C8.80005 15.1235 8.80005 15.135 8.80005 15.1467C8.80005 15.1584 8.80005 15.17 8.80005 15.1817C8.80005 15.1934 8.80005 15.2051 8.80005 15.2169C8.80005 15.2286 8.80005 15.2404 8.80005 15.2523C8.80005 15.264 8.80005 15.2758 8.80005 15.2876C8.80005 15.2996 8.80005 15.3115 8.80005 15.3233C8.80005 15.3353 8.80005 15.3472 8.80005 15.3592C8.80005 15.3712 8.80005 15.3832 8.80005 15.3952C8.80005 15.4072 8.80005 15.4192 8.80005 15.4313C8.80005 15.4433 8.80005 15.4555 8.80005 15.4676C8.80005 15.4796 8.80005 15.4918 8.80005 15.504C8.80005 15.5161 8.80005 15.5284 8.80005 15.5406C8.80005 15.5529 8.80005 15.5651 8.80005 15.5774C8.80005 15.5897 8.80005 15.602 8.80005 15.6144C8.80005 15.6267 8.80005 15.639 8.80005 15.6515C8.80005 15.6638 8.80005 15.6763 8.80005 15.6888C8.80005 15.7011 8.80005 15.7136 8.80005 15.7262C8.80005 15.7387 8.80005 15.7512 8.80005 15.7638C8.80005 15.7763 8.80005 15.7889 8.80005 15.8014C8.80005 15.814 8.80005 15.8267 8.80005 15.8393C8.80005 15.8521 8.80005 15.8648 8.80005 15.8776C8.80005 15.8902 8.80005 15.903 8.80005 15.9158C8.80005 15.9284 8.80005 15.9412 8.80005 15.9542C8.80005 15.967 8.80005 15.9798 8.80005 15.9928C8.80005 16.0056 8.80005 16.0185 8.80005 16.0315C8.80005 16.0444 8.80005 16.0574 8.80005 16.0704C8.80005 16.0833 8.80005 16.0964 8.80005 16.1094C8.80005 16.1225 8.80005 16.1356 8.80005 16.1488C8.80005 16.1619 8.80005 16.175 8.80005 16.1881C8.80005 16.2012 8.80005 16.2145 8.80005 16.2276C8.80005 16.2409 8.80005 16.2542 8.80005 16.2675C8.80005 16.2808 8.80005 16.294 8.80005 16.3073C8.80005 16.3208 8.80005 16.334 8.80005 16.3475C8.80005 16.3609 8.80005 16.3744 8.80005 16.3878C8.80005 16.4012 8.80005 16.4147 8.80005 16.4281C8.80005 16.4417 8.80005 16.4552 8.80005 16.4688C8.80005 16.4824 8.80005 16.496 8.80005 16.5096C8.80005 16.5232 8.80005 16.5368 8.80005 16.5505C8.80005 16.5641 8.80005 16.5779 8.80005 16.5916C8.80005 16.6054 8.80005 16.6192 8.80005 16.6329C8.80005 16.6467 8.80005 16.6604 8.80005 16.6744C8.80005 16.6881 8.80005 16.702 8.80005 16.716C8.80005 16.7299 8.80005 16.7438 8.80005 16.7577C8.80005 16.7718 8.80005 16.7857 8.80005 16.7998C8.80005 16.8137 8.80005 16.8278 8.80005 16.8419C8.80005 16.856 8.80005 16.87 8.80005 16.8843C8.80005 16.8984 8.80005 16.9124 8.80005 16.9267C8.80005 16.9409 8.80005 16.9552 8.80005 16.9694C8.80005 16.9836 8.80005 16.9979 8.80005 17.0123C8.80005 17.0265 8.80005 17.0409 8.80005 17.0553C8.80005 17.0696 8.80005 17.084 8.80005 17.0985C8.80005 17.1129 8.80005 17.1273 8.80005 17.1419C8.80005 17.1563 8.80005 17.1708 8.80005 17.1854C8.80005 17.2 8.80005 17.2145 8.80005 17.2291C8.80005 17.2436 8.80005 17.2584 8.80005 17.2729C8.80005 17.2876 8.80005 17.3024 8.80005 17.3171C8.80005 17.3318 8.80005 17.3465 8.80005 17.3614C8.80005 17.3761 8.80005 17.391 8.80005 17.4057C8.80005 17.4206 8.80005 17.4355 8.80005 17.4504C8.80005 17.4652 8.80005 17.4803 8.80005 17.4952C8.80005 17.5102 8.80005 17.5251 8.80005 17.5401C8.80005 17.5552 8.80005 17.5702 8.80005 17.5852C8.80005 17.6004 8.80005 17.6155 8.80005 17.6307C8.80005 17.6457 8.80005 17.6609 8.80005 17.6761C8.80005 17.6913 8.80005 17.7065 8.80005 17.7219C8.80005 17.7371 8.80005 17.7524 8.80005 17.7676C8.80005 17.783 8.80005 17.7984 8.80005 17.8137C8.80005 17.8291 8.80005 17.8446 8.80005 17.86C8.80005 17.8755 8.80005 17.8908 8.80005 17.9064C8.80005 17.9219 8.80005 17.9374 8.80005 17.9531C8.80005 17.9686 8.80005 17.9841 8.80005 17.9998H11.2C11.2 17.9841 11.2 17.9686 11.2 17.9531C11.2 17.9374 11.2 17.9219 11.2 17.9064C11.2 17.8908 11.2 17.8755 11.2 17.86C11.2 17.8446 11.2 17.8291 11.2 17.8137C11.2 17.7984 11.2 17.783 11.2 17.7676C11.2 17.7524 11.2 17.7371 11.2 17.7219C11.2 17.7065 11.2 17.6913 11.2 17.6761C11.2 17.6609 11.2 17.6457 11.2 17.6307C11.2 17.6155 11.2 17.6004 11.2 17.5852C11.2 17.5702 11.2 17.5552 11.2 17.5401C11.2 17.5251 11.2 17.5102 11.2 17.4952C11.2 17.4803 11.2 17.4652 11.2 17.4504C11.2 17.4355 11.2 17.4206 11.2 17.4057C11.2 17.391 11.2 17.3761 11.2 17.3614C11.2 17.3465 11.2 17.3318 11.2 17.3171C11.2 17.3024 11.2 17.2876 11.2 17.2729C11.2 17.2584 11.2 17.2436 11.2 17.2291C11.2 17.2145 11.2 17.2 11.2 17.1854C11.2 17.1708 11.2 17.1563 11.2 17.1419C11.2 17.1273 11.2 17.1129 11.2 17.0985C11.2 17.084 11.2 17.0696 11.2 17.0553C11.2 17.0409 11.2 17.0265 11.2 17.0123C11.2 16.9979 11.2 16.9836 11.2 16.9694C11.2 16.9552 11.2 16.9409 11.2 16.9267C11.2 16.9124 11.2 16.8984 11.2 16.8843C11.2 16.87 11.2 16.856 11.2 16.8419C11.2 16.8278 11.2 16.8137 11.2 16.7998C11.2 16.7857 11.2 16.7718 11.2 16.7577C11.2 16.7438 11.2 16.7299 11.2 16.716C11.2 16.702 11.2 16.6881 11.2 16.6744C11.2 16.6604 11.2 16.6467 11.2 16.6329C11.2 16.6192 11.2 16.6054 11.2 16.5916C11.2 16.5779 11.2 16.5641 11.2 16.5505C11.2 16.5368 11.2 16.5232 11.2 16.5096C11.2 16.496 11.2 16.4824 11.2 16.4688C11.2 16.4552 11.2 16.4417 11.2 16.4281C11.2 16.4147 11.2 16.4012 11.2 16.3878C11.2 16.3744 11.2 16.3609 11.2 16.3475C11.2 16.334 11.2 16.3208 11.2 16.3073C11.2 16.294 11.2 16.2808 11.2 16.2675C11.2 16.2542 11.2 16.2409 11.2 16.2276C11.2 16.2145 11.2 16.2012 11.2 16.1881C11.2 16.175 11.2 16.1619 11.2 16.1488C11.2 16.1356 11.2 16.1225 11.2 16.1094C11.2 16.0964 11.2 16.0833 11.2 16.0704C11.2 16.0574 11.2 16.0444 11.2 16.0315C11.2 16.0185 11.2 16.0056 11.2 15.9928C11.2 15.9798 11.2 15.967 11.2 15.9542C11.2 15.9412 11.2 15.9284 11.2 15.9158C11.2 15.903 11.2 15.8902 11.2 15.8776C11.2 15.8648 11.2 15.8521 11.2 15.8393C11.2 15.8267 11.2 15.814 11.2 15.8014C11.2 15.7889 11.2 15.7763 11.2 15.7638C11.2 15.7512 11.2 15.7387 11.2 15.7262C11.2 15.7136 11.2 15.7011 11.2 15.6888C11.2 15.6763 11.2 15.6638 11.2 15.6515C11.2 15.639 11.2 15.6267 11.2 15.6144C11.2 15.602 11.2 15.5897 11.2 15.5774C11.2 15.5651 11.2 15.5529 11.2 15.5406C11.2 15.5284 11.2 15.5161 11.2 15.504C11.2 15.4918 11.2 15.4796 11.2 15.4676C11.2 15.4555 11.2 15.4433 11.2 15.4313C11.2 15.4192 11.2 15.4072 11.2 15.3952C11.2 15.3832 11.2 15.3712 11.2 15.3592C11.2 15.3472 11.2 15.3353 11.2 15.3233C11.2 15.3115 11.2 15.2996 11.2 15.2876C11.2 15.2758 11.2 15.264 11.2 15.2523C11.2 15.2404 11.2 15.2286 11.2 15.2169C11.2 15.2051 11.2 15.1934 11.2 15.1817C11.2 15.17 11.2 15.1584 11.2 15.1467C11.2 15.135 11.2 15.1235 11.2 15.1118C11.2 15.1003 11.2 15.0888 11.2 15.0772C11.2 15.0656 11.2 15.054 11.2 15.0427C11.2 15.0312 11.2 15.0196 11.2 15.0083C11.2 14.9968 11.2 14.9854 11.2 14.974C11.2 14.9627 11.2 14.9513 11.2 14.94C11.2 14.9286 11.2 14.9172 11.2 14.906C11.2 14.8947 11.2 14.8835 11.2 14.8723C11.2 14.8611 11.2 14.8499 11.2 14.8387C11.2 14.8275 11.2 14.8163 11.2 14.8052C11.2 14.794 11.2 14.783 11.2 14.772C11.2 14.7609 11.2 14.7499 11.2 14.7388C11.2 14.7278 11.2 14.7168 11.2 14.7059C11.2 14.6948 11.2 14.684 11.2 14.6729C11.2 14.662 11.2 14.6512 11.2 14.6403C11.2 14.6294 11.2 14.6185 11.2 14.6078C11.2 14.5969 11.2 14.5862 11.2 14.5753C11.2 14.5646 11.2 14.5539 11.2 14.5432C11.2 14.5324 11.2 14.5217 11.2 14.5112C11.2 14.5004 11.2 14.4897 11.2 14.4792C11.2 14.4686 11.2 14.458 11.2 14.4475C11.2 14.4369 11.2 14.4264 11.2 14.4158C11.2 14.4052 11.2 14.3948 11.2 14.3843C11.2 14.3739 11.2 14.3635 11.2 14.3531C11.2 14.3425 11.2 14.3321 11.2 14.3219C11.2 14.3115 11.2 14.3011 11.2 14.2908C11.2 14.2804 11.2 14.2702 11.2 14.26C11.2 14.2497 11.2 14.2395 11.2 14.2292C11.2 14.219 11.2 14.2088 11.2 14.1987C11.2 14.1884 11.2 14.1784 11.2 14.1683C11.2 14.158 11.2 14.148 11.2 14.1379C11.2 14.1278 11.2 14.1179 11.2 14.1078C11.2 14.0977 11.2 14.0878 11.2 14.0779C11.2 14.0678 11.2 14.0579 11.2 14.048C11.2 14.038 11.2 14.0281 11.2 14.0184C11.2 14.0084 11.2 13.9985 11.2 13.9888C11.2 13.979 11.2 13.9691 11.2 13.9593C11.2 13.9496 11.2 13.9398 11.2 13.93C11.2 13.9203 11.2 13.9107 11.2 13.9009C11.2 13.8913 11.2 13.8816 11.2 13.872C11.2 13.8624 11.2 13.8528 11.2 13.8432C11.2 13.8336 11.2 13.824 11.2 13.8145C11.2 13.8049 11.2 13.7955 11.2 13.7859C11.2 13.7764 11.2 13.767 11.2 13.7576C11.2 13.7481 11.2 13.7387 11.2 13.7292C11.2 13.72 11.2 13.7105 11.2 13.7012C11.2 13.6918 11.2 13.6825 11.2 13.6732C11.2 13.664 11.2 13.6547 11.2 13.6454C11.2 13.6361 11.2 13.6268 11.2 13.6177C11.2 13.6084 11.2 13.5993 11.2 13.5902C11.2 13.5811 11.2 13.5718 11.2 13.5627C11.2 13.5537 11.2 13.5446 11.2 13.5355C11.2 13.5264 11.2 13.5174 11.2 13.5084C11.2 13.4993 11.2 13.4904 11.2 13.4814C11.2 13.4724 11.2 13.4635 11.2 13.4545C11.2 13.4456 11.2 13.4368 11.2 13.4278C11.2 13.419 11.2 13.41 11.2 13.4012C11.2 13.3924 11.2 13.3836 11.2 13.3748C11.2 13.366 11.2 13.3572 11.2 13.3484C11.2 13.3398 11.2 13.331 11.2 13.3224C11.2 13.3137 11.2 13.3049 11.2 13.2963C11.2 13.2876 11.2 13.279 11.2 13.2704C11.2 13.2619 11.2 13.2532 11.2 13.2446C11.2 13.2361 11.2 13.2276 11.2 13.219C11.2 13.2105 11.2 13.202 11.2 13.1936C11.2 13.1851 11.2 13.1766 11.2 13.1683C11.2 13.1598 11.2 13.1513 11.2 13.143C11.2 13.1347 11.2 13.1262 11.2 13.1179C11.2 13.1096 11.2 13.1012 11.2 13.0929C11.2 13.0848 11.2 13.0764 11.2 13.0681C11.2 13.06 11.2 13.0516 11.2 13.0435C11.2 13.0353 11.2 13.0272 11.2 13.019C11.2 13.0108 11.2 13.0027 11.2 12.9945C11.2 12.9864 11.2 12.9784 11.2 12.9702C11.2 12.9622 11.2 12.9542 11.2 12.946C11.2 12.938 11.2 12.93 11.2 12.922C11.2 12.914 11.2 12.9062 11.2 12.8982C11.2 12.8902 11.2 12.8824 11.2 12.8745C11.2 12.8665 11.2 12.8587 11.2 12.8508C11.2 12.843 11.2 12.8352 11.2 12.8273C11.2 12.8195 11.2 12.8118 11.2 12.804C11.2 12.7961 11.2 12.7884 11.2 12.7808C11.2 12.7729 11.2 12.7652 11.2 12.7576C11.2 12.7499 11.2 12.7422 11.2 12.7347C11.2 12.727 11.2 12.7193 11.2 12.7118C11.2 12.7041 11.2 12.6966 11.2 12.6891C11.2 12.6816 11.2 12.6739 11.2 12.6665C11.2 12.659 11.2 12.6515 11.2 12.644C11.2 12.6364 11.2 12.6291 11.2 12.6216C11.2 12.6142 11.2 12.6068 11.2 12.5995C11.2 12.592 11.2 12.5846 11.2 12.5772C11.2 12.57 11.2 12.5627 11.2 12.5553C11.2 12.5481 11.2 12.5408 11.2 12.5336C11.2 12.5262 11.2 12.519 11.2 12.5118C11.2 12.5046 11.2 12.4974 11.2 12.4902C11.2 12.483 11.2 12.4758 11.2 12.4688C11.2 12.4616 11.2 12.4545 11.2 12.4473C11.2 12.4403 11.2 12.4332 11.2 12.4262C11.2 12.4192 11.2 12.4121 11.2 12.4051C11.2 12.398 11.2 12.391 11.2 12.3841C11.2 12.3771 11.2 12.3702 11.2 12.3632C11.2 12.3563 11.2 12.3494 11.2 12.3425C11.2 12.3356 11.2 12.3288 11.2 12.3219C11.2 12.315 11.2 12.3083 11.2 12.3014C11.2 12.2945 11.2 12.2878 11.2 12.2811C11.2 12.2742 11.2 12.2675 11.2 12.2608C11.2 12.254 11.2 12.2473 11.2 12.2406C11.2 12.234 11.2 12.2273 11.2 12.2206C11.2 12.214 11.2 12.2073 11.2 12.2008C11.2 12.1942 11.2 12.1876 11.2 12.1809C11.2 12.1744 11.2 12.1678 11.2 12.1614C11.2 12.1548 11.2 12.1483 11.2 12.1419C11.2 12.1353 11.2 12.1289 11.2 12.1224C11.2 12.116 11.2 12.1096 11.2 12.1032C11.2 12.0968 11.2 12.0904 11.2 12.084C11.2 12.0776 11.2 12.0712 11.2 12.0649C11.2 12.0585 11.2 12.0523 11.2 12.0459C11.2 12.0396 11.2 12.0334 11.2 12.0272C11.2 12.0208 11.2 12.0145 11.2 12.0084C11.2 12.0022 11.2 11.996 11.2 11.9897C11.2 11.9836 11.2 11.9774 11.2 11.9713C11.2 11.9651 11.2 11.959 11.2 11.9529C11.2 11.9468 11.2 11.9408 11.2 11.9347C11.2 11.9286 11.2 11.9225 11.2 11.9166C11.2 11.9105 11.2 11.9044 11.2 11.8985C11.2 11.8924 11.2 11.8865 11.2 11.8806C11.2 11.8747 11.2 11.8688 11.2 11.8628C11.2 11.8569 11.2 11.851 11.2 11.8451C11.2 11.8392 11.2 11.8334 11.2 11.8275C11.2 11.8217 11.2 11.8158 11.2 11.81C11.2 11.8043 11.2 11.7985 11.2 11.7928C11.2 11.787 11.2 11.7812 11.2 11.7755C11.2 11.7697 11.2 11.7641 11.2 11.7584C11.2 11.7526 11.2 11.747 11.2 11.7414C11.2 11.7356 11.2 11.73 11.2 11.7244C11.2 11.7188 11.2 11.7132 11.2 11.7076C11.2 11.702 11.2 11.6964 11.2 11.691C11.2 11.6854 11.2 11.6798 11.2 11.6744C11.2 11.6689 11.2 11.6633 11.2 11.6579C11.2 11.6524 11.2 11.647 11.2 11.6416C11.2 11.6361 11.2 11.6307 11.2 11.6252C11.2 11.6198 11.2 11.6145 11.2 11.6091C11.2 11.6038 11.2 11.5984 11.2 11.5931C11.2 11.5878 11.2 11.5825 11.2 11.5771C11.2 11.5718 11.2 11.5665 11.2 11.5614C11.2 11.5561 11.2 11.5508 11.2 11.5456C11.2 11.5404 11.2 11.5352 11.2 11.53C11.2 11.5248 11.2 11.5196 11.2 11.5145C11.2 11.5094 11.2 11.5041 11.2 11.4992C11.2 11.494 11.2 11.4889 11.2 11.4838C11.2 11.4787 11.2 11.4736 11.2 11.4686C11.2 11.4635 11.2 11.4585 11.2 11.4536C11.2 11.4484 11.2 11.4435 11.2 11.4385C11.2 11.4336 11.2 11.4286 11.2 11.4236C11.2 11.4187 11.2 11.4137 11.2 11.4089C11.2 11.404 11.2 11.399 11.2 11.3942C11.2 11.3892 11.2 11.3844 11.2 11.3796C11.2 11.3747 11.2 11.3699 11.2 11.3651C11.2 11.3603 11.2 11.3555 11.2 11.3507C11.2 11.346 11.2 11.3412 11.2 11.3364C11.2 11.3318 11.2 11.327 11.2 11.3224C11.2 11.3176 11.2 11.3129 11.2 11.3083C11.2 11.3036 11.2 11.2988 11.2 11.2942C11.2 11.2896 11.2 11.2851 11.2 11.2804C11.2 11.2758 11.2 11.2712 11.2 11.2667C11.2 11.262 11.2 11.2576 11.2 11.2529C11.2 11.2484 11.2 11.244 11.2 11.2393C11.2 11.2348 11.2 11.2304 11.2 11.2259C11.2 11.2214 11.2 11.2169 11.2 11.2126C11.2 11.2081 11.2 11.2036 11.2 11.1993C11.2 11.1948 11.2 11.1905 11.2 11.186C11.2 11.1817 11.2 11.1774 11.2 11.1729C11.2 11.1686 11.2 11.1643 11.2 11.16C11.2 11.1556 11.2 11.1515 11.2 11.1472C11.2 11.1428 11.2 11.1385 11.2 11.1344C11.2 11.13 11.2 11.1259 11.2 11.1216C11.2 11.1174 11.2 11.1132 11.2 11.1091C11.2 11.1048 11.2 11.1006 11.2 11.0964C11.2 11.0923 11.2 11.0883 11.2 11.0841C11.2 11.08 11.2 11.0758 11.2 11.0718C11.2 11.0676 11.2 11.0636 11.2 11.0595C11.2 11.0555 11.2 11.0515 11.2 11.0475C11.2 11.0433 11.2 11.0393 11.2 11.0353C11.2 11.0313 11.2 11.0273 11.2 11.0235C11.2 11.0195 11.2 11.0155 11.2 11.0116C11.2 11.0076 11.2 11.0036 11.2 10.9998C11.2 10.996 11.2 10.992 11.2 10.9881C11.2 10.9843 11.2 10.9804 11.2 10.9766C11.2 10.9728 11.2 10.9689 11.2 10.9651C11.2 10.9612 11.2 10.9574 11.2 10.9537C11.2 10.9499 11.2 10.946 11.2 10.9424C11.2 10.9385 11.2 10.9348 11.2 10.9312C11.2 10.9273 11.2 10.9236 11.2 10.92C11.2 10.9163 11.2 10.9126 11.2 10.9089C11.2 10.9052 11.2 10.9016 11.2 10.898C11.2 10.8944 11.2 10.8907 11.2 10.8872C11.2 10.8835 11.2 10.88 11.2 10.8763C11.2 10.8728 11.2 10.8692 11.2 10.8657C11.2 10.862 11.2 10.8585 11.2 10.855C11.2 10.8515 11.2 10.848 11.2 10.8446C11.2 10.8411 11.2 10.8376 11.2 10.834C11.2 10.8307 11.2 10.8272 11.2 10.8238C11.2 10.8203 11.2 10.8169 11.2 10.8136C11.2 10.81 11.2 10.8067 11.2 10.8033C11.2 10.8 11.2 10.7966 11.2 10.7932C11.2 10.7899 11.2 10.7865 11.2 10.7833C11.2 10.78 11.2 10.7766 11.2 10.7734C11.2 10.77 11.2 10.7668 11.2 10.7635C11.2 10.7603 11.2 10.7569 11.2 10.7537C11.2 10.7505 11.2 10.7473 11.2 10.7441C11.2 10.7409 11.2 10.7377 11.2 10.7345C11.2 10.7313 11.2 10.7281 11.2 10.7251C11.2 10.7219 11.2 10.7187 11.2 10.7156C11.2 10.7124 11.2 10.7094 11.2 10.7062C11.2 10.7032 11.2 10.7001 11.2 10.6971C11.2 10.6939 11.2 10.6908 11.2 10.6878C11.2 10.6848 11.2 10.6817 11.2 10.6787C11.2 10.6756 11.2 10.6728 11.2 10.6697C11.2 10.6667 11.2 10.6638 11.2 10.6608C11.2 10.6579 11.2 10.6548 11.2 10.652C11.2 10.6489 11.2 10.646 11.2 10.6432C11.2 10.6403 11.2 10.6374 11.2 10.6345C11.2 10.6316 11.2 10.6288 11.2 10.6259C11.2 10.623 11.2 10.6201 11.2 10.6172C11.2 10.6145 11.2 10.6116 11.2 10.6089C11.2 10.606 11.2 10.6033 11.2 10.6004C11.2 10.5977 11.2 10.595 11.2 10.5921C11.2 10.5894 11.2 10.5867 11.2 10.584C11.2 10.5812 11.2 10.5785 11.2 10.5758C11.2 10.5731 11.2 10.5704 11.2 10.5678C11.2 10.5651 11.2 10.5624 11.2 10.5598C11.2 10.5571 11.2 10.5544 11.2 10.5518C11.2 10.5492 11.2 10.5465 11.2 10.544C11.2 10.5414 11.2 10.5387 11.2 10.5361C11.2 10.5336 11.2 10.531 11.2 10.5284C11.2 10.5259 11.2 10.5233 11.2 10.5209C11.2 10.5184 11.2 10.5158 11.2 10.5132C11.2 10.5108 11.2 10.5083 11.2 10.5059C11.2 10.5033 11.2 10.5009 11.2 10.4984C11.2 10.496 11.2 10.4936 11.2 10.4912C11.2 10.4886 11.2 10.4862 11.2 10.4838C11.2 10.4814 11.2 10.479 11.2 10.4766C11.2 10.4742 11.2 10.472 11.2 10.4696C11.2 10.4672 11.2 10.4648 11.2 10.4625C11.2 10.4601 11.2 10.4579 11.2 10.4555C11.2 10.4532 11.2 10.4508 11.2 10.4486C11.2 10.4464 11.2 10.444 11.2 10.4417C11.2 10.4395 11.2 10.4372 11.2 10.435C11.2 10.4328 11.2 10.4305 11.2 10.4283C11.2 10.426 11.2 10.4238 11.2 10.4217C11.2 10.4195 11.2 10.4172 11.2 10.4152C11.2 10.4129 11.2 10.4108 11.2 10.4086C11.2 10.4065 11.2 10.4043 11.2 10.4022C11.2 10.4001 11.2 10.3979 11.2 10.3958C11.2 10.3937 11.2 10.3916 11.2 10.3896C11.2 10.3875 11.2 10.3854 11.2 10.3833C11.2 10.3812 11.2 10.3792 11.2 10.3772C11.2 10.3752 11.2 10.3731 11.2 10.3712C11.2 10.3691 11.2 10.3672 11.2 10.3651C11.2 10.3632 11.2 10.3611 11.2 10.3592C11.2 10.3571 11.2 10.3552 11.2 10.3532C11.2 10.3513 11.2 10.3494 11.2 10.3475C11.2 10.3456 11.2 10.3436 11.2 10.3417C11.2 10.3398 11.2 10.3379 11.2 10.336C11.2 10.334 11.2 10.3321 11.2 10.3304C11.2 10.3284 11.2 10.3265 11.2 10.3248C11.2 10.3228 11.2 10.3211 11.2 10.3193C11.2 10.3174 11.2 10.3156 11.2 10.3137C11.2 10.312 11.2 10.3102 11.2 10.3084C11.2 10.3067 11.2 10.3049 11.2 10.3032C11.2 10.3014 11.2 10.2996 11.2 10.2979C11.2 10.2961 11.2 10.2944 11.2 10.2926C11.2 10.2908 11.2 10.2892 11.2 10.2875C11.2 10.2857 11.2 10.2841 11.2 10.2824C11.2 10.2808 11.2 10.279 11.2 10.2774C11.2 10.2758 11.2 10.274 11.2 10.2724C11.2 10.2708 11.2 10.2692 11.2 10.2675C11.2 10.2659 11.2 10.2643 11.2 10.2627C11.2 10.2611 11.2 10.2595 11.2 10.2579C11.2 10.2563 11.2 10.2548 11.2 10.2532C11.2 10.2516 11.2 10.25 11.2 10.2486C11.2 10.247 11.2 10.2454 11.2 10.244C11.2 10.2424 11.2 10.2409 11.2 10.2393C11.2 10.2379 11.2 10.2364 11.2 10.2348C11.2 10.2334 11.2 10.232 11.2 10.2305C11.2 10.2289 11.2 10.2275 11.2 10.226C11.2 10.2246 11.2 10.2232 11.2 10.2217C11.2 10.2203 11.2 10.2188 11.2 10.2176C11.2 10.2161 11.2 10.2147 11.2 10.2132C11.2 10.212 11.2 10.2105 11.2 10.2091C11.2 10.2078 11.2 10.2064 11.2 10.2051C11.2 10.2036 11.2 10.2024 11.2 10.2009C11.2 10.1996 11.2 10.1984 11.2 10.1969C11.2 10.1956 11.2 10.1944 11.2 10.1931C11.2 10.1918 11.2 10.1904 11.2 10.1891C11.2 10.1878 11.2 10.1865 11.2 10.1852C11.2 10.184 11.2 10.1828 11.2 10.1816C11.2 10.1803 11.2 10.179 11.2 10.1777C11.2 10.1766 11.2 10.1753 11.2 10.174C11.2 10.1729 11.2 10.1716 11.2 10.1705C11.2 10.1692 11.2 10.1681 11.2 10.1668C11.2 10.1657 11.2 10.1646 11.2 10.1633C11.2 10.1622 11.2 10.1611 11.2 10.1598C11.2 10.1587 11.2 10.1576 11.2 10.1564C11.2 10.1553 11.2 10.1542 11.2 10.1531C11.2 10.152 11.2 10.1508 11.2 10.1497C11.2 10.1486 11.2 10.1475 11.2 10.1465C11.2 10.1454 11.2 10.1443 11.2 10.1432C11.2 10.1422 11.2 10.1411 11.2 10.14C11.2 10.139 11.2 10.1379 11.2 10.1369C11.2 10.1358 11.2 10.1348 11.2 10.1337C11.2 10.1328 11.2 10.1318 11.2 10.1307C11.2 10.1297 11.2 10.1288 11.2 10.1278C11.2 10.1268 11.2 10.1257 11.2 10.1248C11.2 10.1238 11.2 10.1228 11.2 10.1219C11.2 10.1209 11.2 10.12 11.2 10.119C11.2 10.118 11.2 10.1171 11.2 10.1163C11.2 10.1153 11.2 10.1144 11.2 10.1134C11.2 10.1126 11.2 10.1116 11.2 10.1107C11.2 10.1099 11.2 10.1089 11.2 10.108C11.2 10.1072 11.2 10.1062 11.2 10.1054C11.2 10.1046 11.2 10.1036 11.2 10.1028C11.2 10.1019 11.2 10.1011 11.2 10.1003C11.2 10.0993 11.2 10.0985 11.2 10.0977C11.2 10.0969 11.2 10.0961 11.2 10.0953C11.2 10.0945 11.2 10.0936 11.2 10.0928C11.2 10.092 11.2 10.0912 11.2 10.0905C11.2 10.0897 11.2 10.0889 11.2 10.0881C11.2 10.0873 11.2 10.0865 11.2 10.0859C11.2 10.0851 11.2 10.0843 11.2 10.0835C11.2 10.0828 11.2 10.082 11.2 10.0812C11.2 10.0806 11.2 10.0798 11.2 10.0792C11.2 10.0784 11.2 10.0777 11.2 10.0769C11.2 10.0763 11.2 10.0756 11.2 10.0748C11.2 10.0742 11.2 10.0736 11.2 10.0728C11.2 10.0721 11.2 10.0715 11.2 10.0708C11.2 10.0702 11.2 10.0694 11.2 10.0688C11.2 10.0681 11.2 10.0675 11.2 10.0668C11.2 10.0662 11.2 10.0656 11.2 10.0649C11.2 10.0643 11.2 10.0636 11.2 10.063C11.2 10.0624 11.2 10.0619 11.2 10.0612C11.2 10.0606 11.2 10.06 11.2 10.0595C11.2 10.0588 11.2 10.0582 11.2 10.0576C11.2 10.0571 11.2 10.0564 11.2 10.056C11.2 10.0553 11.2 10.0548 11.2 10.0542C11.2 10.0536 11.2 10.0531 11.2 10.0526C11.2 10.052 11.2 10.0515 11.2 10.0508C11.2 10.0504 11.2 10.0499 11.2 10.0492C11.2 10.0488 11.2 10.0497 11.2 10.0492C11.2 10.0486 11.2 10.0467 11.2 10.0462C11.2 10.0457 11.2 10.0467 11.2 10.0462C11.2 10.0457 11.2 10.0438 11.2 10.0433C11.2 10.0428 11.2 10.0438 11.2 10.0433C11.2 10.0428 11.2 10.0409 11.2 10.0404C11.2 10.04 11.2 10.0409 11.2 10.0404C11.2 10.04 11.2 10.0382 11.2 10.0377C11.2 10.0372 11.2 10.038 11.2 10.0377C11.2 10.0372 11.2 10.0355 11.2 10.0352C11.2 10.0347 11.2 10.0356 11.2 10.0352C11.2 10.0347 11.2 10.0331 11.2 10.0326C11.2 10.0323 11.2 10.0329 11.2 10.0326C11.2 10.0323 11.2 10.0307 11.2 10.0304C11.2 10.0299 11.2 10.0307 11.2 10.0304C11.2 10.0299 11.2 10.0284 11.2 10.0281C11.2 10.0278 11.2 10.0284 11.2 10.0281C11.2 10.0278 11.2 10.0264 11.2 10.026C11.2 10.0256 11.2 10.0264 11.2 10.026C11.2 10.0257 11.2 10.0243 11.2 10.024C11.2 10.0236 11.2 10.0243 11.2 10.024C11.2 10.0236 11.2 10.0224 11.2 10.022C11.2 10.0217 11.2 10.0224 11.2 10.022C11.2 10.0217 11.2 10.0206 11.2 10.0203C11.2 10.02 11.2 10.0206 11.2 10.0203C11.2 10.0201 11.2 10.0188 11.2 10.0185C11.2 10.0182 11.2 10.0164 11.2 10.0161C11.2 10.016 11.2 10.0142 11.2 10.014C11.2 10.0139 11.2 10.0123 11.2 10.0121C11.2 10.012 11.2 10.0105 11.2 10.0102C11.2 10.01 11.2 10.0089 11.2 10.0086C11.2 10.0084 11.2 10.007 11.2 10.0068C11.2 10.0067 11.2 10.007 11.2 10.0068C11.2 10.0067 11.2 10.0054 11.2 10.0052C11.2 10.0051 11.2 10.0035 11.2 10.0033C11.2 10.0033 11.2 10.0019 11.2 10.0017C11.2 10.0016 11.2 9.9998 11.2 9.9998H10ZM11.2 9.9998V1.9998H8.80005V9.9998H11.2Z" fill="#232323"/>
</svg>
