<svg width="26" height="26" viewBox="0 0 26 26" fill="none" xmlns="http://www.w3.org/2000/svg">
<path d="M1.18264 7.17066C0.614339 7.51164 0.430067 8.24876 0.771043 8.81705C1.11202 9.38535 1.84914 9.56962 2.41743 9.22865L1.18264 7.17066ZM9.80004 3.39965L10.52 2.43965C10.1298 2.14692 9.601 2.11964 9.1826 2.37066L9.80004 3.39965ZM16.2 8.19965L15.48 9.15966C15.9178 9.48801 16.5223 9.47857 16.9496 9.13669L16.2 8.19965ZM24.9496 2.73669C25.4672 2.32268 25.5511 1.56754 25.1372 1.05002C24.7231 0.532503 23.9679 0.448599 23.4504 0.862615L24.9496 2.73669ZM21.4 24.1997C21.4 24.8624 21.9373 25.3997 22.6 25.3997C23.2628 25.3997 23.8 24.8624 23.8 24.1997H21.4ZM23.8 11.3997C23.8 10.7369 23.2628 10.1997 22.6 10.1997C21.9373 10.1997 21.4 10.7369 21.4 11.3997H23.8ZM8.60004 24.1997C8.60004 24.8624 9.13731 25.3997 9.80004 25.3997C10.4628 25.3997 11 24.8624 11 24.1997H8.60004ZM11 11.3997C11 10.7369 10.4628 10.1997 9.80004 10.1997C9.13731 10.1997 8.60004 10.7369 8.60004 11.3997H11ZM15 24.1997C15 24.8624 15.5373 25.3997 16.2 25.3997C16.8628 25.3997 17.4 24.8624 17.4 24.1997H15ZM17.4 16.1997C17.4 15.5369 16.8628 14.9997 16.2 14.9997C15.5373 14.9997 15 15.5369 15 16.1997H17.4ZM2.20004 24.1997C2.20004 24.8624 2.7373 25.3997 3.40004 25.3997C4.06277 25.3997 4.60004 24.8624 4.60004 24.1997H2.20004ZM4.60004 16.1997C4.60004 15.5369 4.06277 14.9997 3.40004 14.9997C2.7373 14.9997 2.20004 15.5369 2.20004 16.1997H4.60004ZM2.41743 9.22865L10.4175 4.42865L9.1826 2.37066L1.18264 7.17066L2.41743 9.22865ZM9.08004 4.35965L15.48 9.15966L16.92 7.23965L10.52 2.43965L9.08004 4.35965ZM16.9496 9.13669L24.9496 2.73669L23.4504 0.862615L15.4504 7.26261L16.9496 9.13669ZM23.8 24.1997V11.3997H21.4V24.1997H23.8ZM11 24.1997V11.3997H8.60004V24.1997H11ZM17.4 24.1997V16.1997H15V24.1997H17.4ZM4.60004 24.1997V16.1997H2.20004V24.1997H4.60004Z" fill="#232323"/>
</svg>
