<svg width="20" height="20" viewBox="0 0 20 20" fill="none" xmlns="http://www.w3.org/2000/svg">
<path fill-rule="evenodd" clip-rule="evenodd" d="M14.9206 13.2125L20 18.0564L18.0952 20L12.9511 15.146C11.646 15.9704 9.79114 16.7595 8.25397 16.7573C3.69524 16.7573 0 12.9972 0 8.37865C0 3.75106 3.70413 0 8.25397 0C12.8127 0 16.5079 3.76008 16.5079 8.37865C16.5102 9.9365 15.7304 11.8892 14.9206 13.2125ZM2.53587 8.31678C2.53587 11.5136 5.09333 14.1174 8.25016 14.1174C11.3994 14.1174 13.9644 11.52 13.9644 8.31678C13.9644 5.12 11.4057 2.51617 8.25016 2.51617C5.10095 2.51617 2.53587 5.11227 2.53587 8.31678Z" fill="#232323"/>
</svg>
