<svg width="19" height="19" viewBox="0 0 19 19" fill="none" xmlns="http://www.w3.org/2000/svg">
<path d="M0.00021649 9.50095C0.000731317 9.98192 0.41274 10.3714 0.920469 10.3709C1.4282 10.3705 1.8394 9.98017 1.83888 9.4992L0.00021649 9.50095ZM6.05556 1.99052L5.69344 1.19003L5.69229 1.1905L6.05556 1.99052ZM10.8618 1.52604L11.0487 0.673333L11.0459 0.672764L10.8618 1.52604ZM16.3266 7.41821C16.4668 7.88049 16.9761 8.14745 17.4641 8.01461C17.9521 7.88176 18.234 7.39928 18.0937 6.93703L16.3266 7.41821ZM16.3203 6.95856C16.1926 7.42413 16.4875 7.89953 16.9789 8.02053C17.4704 8.14152 17.9722 7.86214 18.0999 7.39661L16.3203 6.95856ZM18.9702 4.22427C19.0979 3.75874 18.8031 3.28329 18.3117 3.16231C17.8203 3.04133 17.3184 3.32063 17.1906 3.78616L18.9702 4.22427ZM16.9653 8.01704C17.4547 8.14513 17.961 7.87317 18.0962 7.40962C18.2316 6.94596 17.9444 6.46628 17.455 6.33818L16.9653 8.01704ZM14.2079 5.48818C13.7185 5.36006 13.2121 5.63204 13.0769 6.09565C12.9417 6.55926 13.2288 7.03895 13.7182 7.16706L14.2079 5.48818ZM18.9998 9.4992C18.9993 9.01812 18.5873 8.62865 18.0796 8.62911C17.5718 8.62958 17.1606 9.01986 17.1611 9.50095L18.9998 9.4992ZM8.13813 17.474L7.9512 18.3267L7.95414 18.3272L8.13813 17.474ZM2.67342 11.5818C2.53315 11.1195 2.02387 10.8526 1.5359 10.9854C1.04791 11.1183 0.766034 11.6007 0.9063 12.063L2.67342 11.5818ZM2.67963 12.0414C2.80735 11.576 2.51251 11.1005 2.0211 10.9795C1.52968 10.8585 1.02779 11.1379 0.900085 11.6034L2.67963 12.0414ZM0.0297821 14.7758C-0.0979317 15.2413 0.196905 15.7167 0.688319 15.8377C1.17972 15.9587 1.68162 15.6794 1.80933 15.2138L0.0297821 14.7758ZM2.03471 10.983C1.54532 10.8549 1.03897 11.1269 0.903738 11.5904C0.768498 12.0541 1.0556 12.5338 1.54499 12.6619L2.03471 10.983ZM4.79208 13.5119C5.28147 13.6399 5.78784 13.368 5.92307 12.9044C6.05831 12.4408 5.7712 11.9611 5.2818 11.833L4.79208 13.5119ZM1.83888 9.4992C1.83738 8.06512 2.27331 6.66124 3.09425 5.45641L1.54944 4.5118C0.536335 5.99867 -0.00164669 7.73116 0.00021649 9.50095L1.83888 9.4992ZM3.09425 5.45641C3.89788 4.27463 5.05568 3.34604 6.41884 2.79054L5.69229 1.1905C3.9932 1.88288 2.5511 3.03881 1.54944 4.5118L3.09425 5.45641ZM6.41769 2.79102C7.76035 2.24594 9.2466 2.1023 10.6778 2.37931L11.0459 0.672764C9.24771 0.324728 7.38036 0.505203 5.69344 1.19003L6.41769 2.79102ZM10.6749 2.37874C12.1174 2.66253 13.4358 3.3518 14.4584 4.35652L15.7821 3.14761C14.5029 1.89067 12.8533 1.02837 11.0487 0.673333L10.6749 2.37874ZM14.4584 4.35652C15.3358 5.21677 15.9777 6.26853 16.3266 7.41821L18.0937 6.93703C17.6618 5.51349 16.8685 4.21278 15.7821 3.14761L14.4584 4.35652ZM18.0999 7.39661L18.9702 4.22427L17.1906 3.78616L16.3203 6.95856L18.0999 7.39661ZM17.455 6.33818L14.2079 5.48818L13.7182 7.16706L16.9653 8.01704L17.455 6.33818ZM17.1611 9.50095C17.1627 10.9349 16.7267 12.3388 15.9058 13.5437L17.4506 14.4882C18.4637 13.0014 19.0016 11.2689 18.9998 9.4992L17.1611 9.50095ZM15.9058 13.5437C15.1021 14.7255 13.9443 15.654 12.5812 16.2094L13.3066 17.81C15.0057 17.1176 16.449 15.9612 17.4506 14.4882L15.9058 13.5437ZM12.5812 16.2094C11.2386 16.7545 9.75334 16.8977 8.32224 16.6207L7.95414 18.3272C9.75224 18.6753 11.6197 18.4948 13.3066 17.81L12.5812 16.2094ZM8.32506 16.6213C6.88269 16.3375 5.56413 15.6482 4.54166 14.6436L3.21796 15.8524C4.49712 17.1094 6.14668 17.9717 7.9512 18.3267L8.32506 16.6213ZM4.54166 14.6436C3.66421 13.7832 3.02225 12.7315 2.67342 11.5818L0.9063 12.063C1.33823 13.4865 2.1315 14.7872 3.21796 15.8524L4.54166 14.6436ZM0.900085 11.6034L0.0297821 14.7758L1.80933 15.2138L2.67963 12.0414L0.900085 11.6034ZM1.54499 12.6619L4.79208 13.5119L5.2818 11.833L2.03471 10.983L1.54499 12.6619Z" fill="#232323"/>
</svg>
