<svg width="21" height="26" viewBox="0 0 21 26" fill="none" xmlns="http://www.w3.org/2000/svg">
<path fill-rule="evenodd" clip-rule="evenodd" d="M17.7228 7.85742H3.27714C2.47971 7.85742 1.83325 8.49678 1.83325 9.28546V20.7149C1.83325 23.0818 3.77337 25.0007 6.16662 25.0007H14.8333C15.9827 25.0007 17.0849 24.5491 17.8975 23.7455C18.7101 22.9416 19.1667 21.8515 19.1667 20.7149V9.28546C19.1667 8.49678 18.5203 7.85742 17.7228 7.85742Z" stroke="#232323" stroke-width="2" stroke-linecap="round" stroke-linejoin="round"/>
<path fill-rule="evenodd" clip-rule="evenodd" d="M18.5 4L16.5693 1.8295C16.118 1.3214 15.1952 1.0003 14.1855 1H6.81476C5.80493 1.0003 4.88207 1.3214 4.43067 1.8295L2.5 4H18.5Z" stroke="#232323" stroke-width="2" stroke-linecap="round" stroke-linejoin="round"/>
<path d="M8.9438 13.5719C8.9438 12.8618 8.34682 12.2861 7.61046 12.2861C6.87405 12.2861 6.2771 12.8618 6.2771 13.5719H8.9438ZM6.2771 19.2857C6.2771 19.9958 6.87405 20.5715 7.61046 20.5715C8.34682 20.5715 8.9438 19.9958 8.9438 19.2857H6.2771ZM14.7227 13.5719C14.7227 12.8618 14.1259 12.2861 13.3893 12.2861C12.653 12.2861 12.056 12.8618 12.056 13.5719H14.7227ZM12.056 19.2857C12.056 19.9958 12.653 20.5715 13.3893 20.5715C14.1259 20.5715 14.7227 19.9958 14.7227 19.2857H12.056ZM6.2771 13.5719V19.2857H8.9438V13.5719H6.2771ZM12.056 13.5719V19.2857H14.7227V13.5719H12.056Z" fill="#232323"/>
</svg>
